<!DOCTYPE svg PUBLIC "-//W3C//DTD SVG 1.1//EN" "http://www.w3.org/Graphics/SVG/1.1/DTD/svg11.dtd">
<!-- Uploaded to: SVG Find, www.svgrepo.com, Transformed by: SVG Find Mixer Tools -->
<svg fill="#ffffff" width="800px" height="800px" version="1.1" viewBox="144 144 512 512" xmlns="http://www.w3.org/2000/svg" stroke="#ffffff">
<g id="SVGRepo_bgCarrier" stroke-width="0"/>
<g id="SVGRepo_tracerCarrier" stroke-linecap="round" stroke-linejoin="round"/>
<g id="SVGRepo_iconCarrier"> <g> <path d="m614.77 527.85c-77.855 28.641-178.54-4.1328-240.77-52.844-45.156-35.348-73.707-85.266-80.449-142.09-5.707-48.152 4.6836-96.75 15.688-143.38 0.71094-2.9922 0.066406-5.5469-1.3242-7.5078-1.8203-3.4141-5.4648-5.6719-10.305-4.1094-0.054687 0.015625-0.10938 0.039063-0.16797 0.058594-0.76953 0.16016-1.5156 0.41797-2.2148 0.78516-62.094 20.844-105.51 66.746-118.04 131.78-11.777 61.117 4.2656 126.45 32.48 180.86 77.973 150.36 301.59 176.48 414.3 52.234 5.8711-6.4648 0.28516-19.273-9.1914-15.785zm-388.78-45.988c-52.195-96.672-48.82-232.75 60.992-279.79-10.039 45.367-17.035 91.254-11.508 137.86 7.0898 59.785 39.348 110.47 85.152 148.43 56.18 46.559 146.3 78.285 223.17 66.746-110.64 87.098-289.05 54.109-357.81-73.242z"/> <path d="m360.64 231.04c4.793-2.875 9.2812-6.1758 13.77-9.4766-0.68359 11.766-1.4648 23.52-2.2305 35.281-0.43359 6.6797 8.5664 12.418 14.223 8.1562 9.0117-6.7852 17.828-13.613 25.832-21.594 8.6289-8.6133-4.7344-21.977-13.367-13.355-2.082 2.0742-4.2188 4.0469-6.3945 5.9805 0.73047-10.977 1.4102-21.961 1.8203-32.965 0.27344-7.25-8.2031-11.648-14.223-8.1562-10.152 5.8828-18.914 13.777-28.969 19.816-10.43 6.2695-0.93359 22.605 9.5391 16.312z"/> <path d="m396.49 344.62c15.824-3.6484 31.391-8.5664 47.168-12.484-13.32 31-28.633 60.863-34.32 94.594-1.1992 7.1172 4.1328 13.352 11.629 11.617 24.188-5.5938 48.359-11.16 71.043-21.473 11.082-5.043 1.4727-21.316-9.543-16.312-16.453 7.4805-34.074 12.035-51.691 16.148 8.4531-33.105 25.035-63.188 37.512-95.078 2.8906-7.375-5.3398-12.727-11.621-11.621-22.062 3.8906-43.387 11.355-65.203 16.383-11.875 2.7461-6.8359 20.961 5.0273 18.227z"/> <path d="m572.65 448.13c10.902 1.1445 21.219 2.7617 32.234 2.1445 12.117-0.67578 12.184-19.574 0-18.895-4.2891 0.24219-8.457 0.085938-12.617-0.19141 12.031-14.262 22.738-29.883 33.129-45.121 3.2188-4.7266 0.1875-12.902-5.6523-13.875-11.316-1.8906-22.48-2.7773-33.938-3.375-12.188-0.63672-12.125 18.258 0 18.895 5.0117 0.26172 9.9648 0.55078 14.902 0.97656-10.574 15.215-21.734 30.258-34.746 43.312-6.2773 6.3086-1.1602 15.305 6.6875 16.129z"/> </g> </g>
</svg>